<?xml version="1.0" encoding="UTF-8" standalone="no"?>
<!DOCTYPE svg PUBLIC "-//W3C//DTD SVG 1.1//EN" "http://www.w3.org/Graphics/SVG/1.1/DTD/svg11.dtd">
<svg width="100%" height="100%" viewBox="0 0 512 512" version="1.1" xmlns="http://www.w3.org/2000/svg" xmlns:xlink="http://www.w3.org/1999/xlink" xml:space="preserve" xmlns:serif="http://www.serif.com/" style="fill-rule:evenodd;clip-rule:evenodd;stroke-linejoin:round;stroke-miterlimit:2;">
    <g transform="matrix(1,0,0,1,-704,-284)">
        <g transform="matrix(1.97183,0,0,1.950005,-1188.95699,-769.002808)">
            <path d="M1089.829,540C1161.483,540 1219.657,598.825 1219.657,671.282C1219.657,743.738 1161.483,802.563 1089.829,802.563C1018.174,802.563 960,743.738 960,671.282C960,598.825 1018.174,540 1089.829,540ZM1117.69,717.135L1145.19,744.943C1150.191,750 1158.312,750 1163.313,744.943C1168.314,739.886 1168.314,731.674 1163.313,726.617L1135.565,698.559C1142.465,687.913 1146.479,675.187 1146.479,661.52C1146.479,624.16 1116.483,593.828 1079.536,593.828C1042.59,593.828 1012.594,624.16 1012.594,661.52C1012.594,698.88 1042.59,729.212 1079.536,729.212C1093.711,729.212 1106.862,724.748 1117.69,717.135ZM1079.536,617.94C1103.322,617.94 1122.634,637.468 1122.634,661.52C1122.634,685.572 1103.322,705.099 1079.536,705.099C1055.75,705.099 1036.439,685.572 1036.439,661.52C1036.439,637.468 1055.75,617.94 1079.536,617.94Z" style="fill:white;"/>
        </g>
    </g>
</svg>
